<?xml version="1.0" encoding="UTF-8" standalone="no"?>
<svg
   xmlns:dc="http://purl.org/dc/elements/1.1/"
   xmlns:cc="http://creativecommons.org/ns#"
   xmlns:rdf="http://www.w3.org/1999/02/22-rdf-syntax-ns#"
   xmlns:svg="http://www.w3.org/2000/svg"
   xmlns="http://www.w3.org/2000/svg"
   viewBox="0 0 1000 700"
   fill-rule="evenodd"
   clip-rule="evenodd"
   stroke-linejoin="round"
   stroke-miterlimit="1.41"
   version="1.1"
   id="svg4656">
  <metadata
     id="metadata4662">
    <rdf:RDF>
      <cc:Work
         rdf:about="">
        <dc:format>image/svg+xml</dc:format>
        <dc:type
           rdf:resource="http://purl.org/dc/dcmitype/StillImage" />
        <dc:title></dc:title>
      </cc:Work>
    </rdf:RDF>
  </metadata>
  <defs
     id="defs4660">
    <clipPath
       id="a">
      <path
         d="M -500,109.38 H 500 V 282.44 H -500 Z"
         id="path5321" />
    </clipPath>
  </defs>
  <g
     transform="matrix(0.95281275,0,0,0.95200427,501.85281,366.74923)"
     id="g4654"
     style="fill:#ec7700;fill-opacity:1">
    <clipPath
       id="d">
      <path
         d="M -500,-132.03 H 500 v 241.4 H -500 Z"
         id="path4645" />
    </clipPath>
    <g
       clip-path="url(#d)"
       id="g4652"
       style="fill:#ec7700;fill-opacity:1;fill-rule:nonzero" />
  </g>
  <g
     transform="matrix(0.95281275,0,0,0.95200427,597.3216,438.71434)"
     id="g5330">
    <clipPath
       id="clipPath5930">
      <path
         d="M -500,109.38 H 500 V 282.44 H -500 Z"
         id="path5928" />
    </clipPath>
    <g
       style="fill-rule:nonzero"
       clip-path="url(#a)"
       id="g5328" />
  </g>
  <path
     style="fill:#ff9d39;fill-opacity:1;fill-rule:nonzero;stroke:none;stroke-width:2.78669357;stroke-miterlimit:1.40999997;stroke-dasharray:none;stroke-opacity:1"
     d="m 277.10116,620.09953 c 3.68656,0 6.72798,1.2903 9.30857,3.87089 2.5806,2.5806 3.87089,5.71417 3.87089,9.30857 v 45.71339 h -46.72719 c -3.68656,0 -6.72797,-1.2903 -9.30857,-3.87089 -2.58059,-2.5806 -3.87089,-5.71418 -3.87089,-9.30858 v -21.75072 h 48.93913 v -10.7832 c 0,-0.64514 -0.18433,-1.10597 -0.64515,-1.56679 -0.46082,-0.46082 -0.92164,-0.64514 -1.56679,-0.64514 h -46.72719 v -10.96753 z m 2.21194,47.92532 v -12.99513 h -37.9716 v 10.78319 c 0,0.64515 0.18432,1.10597 0.64514,1.56679 0.46082,0.46082 0.92165,0.64515 1.56679,0.64515 z m 105.7122,-47.92532 h 11.70484 l -22.11938,58.89285 h -8.93992 l -19.81527,-43.77794 -18.70931,43.77794 -0.18433,-0.0922 0.0922,0.0922 h -8.84775 L 295.0732,620.09953 h 11.61267 l 15.94439,39.07757 16.95819,-39.07757 h 12.53431 l 17.972,39.07757 z m 61.93426,0 c 3.68657,0 6.72798,1.2903 9.30858,3.87089 2.58059,2.5806 3.87089,5.71417 3.87089,9.30857 v 21.75073 H 411.1999 v 10.78319 c 0,0.64515 0.18433,1.10597 0.64515,1.56679 0.46082,0.46082 0.92164,0.64515 1.56679,0.64515 h 46.72719 v 10.96753 h -46.72719 c -3.68657,0 -6.72798,-1.2903 -9.30857,-3.87089 -2.5806,-2.5806 -3.8709,-5.71418 -3.8709,-9.30858 v -32.53392 c 0,-3.68656 1.2903,-6.72797 3.8709,-9.30857 2.58059,-2.58059 5.71418,-3.87089 9.30857,-3.87089 z m -35.75966,23.96266 h 37.9716 v -10.7832 c 0,-0.64514 -0.18433,-1.10597 -0.64515,-1.56679 -0.46082,-0.46082 -0.92164,-0.64514 -1.56679,-0.64514 h -33.54772 c -0.64515,0 -1.10597,0.18432 -1.56679,0.64514 -0.46082,0.46082 -0.64515,0.92165 -0.64515,1.56679 z m 118.89167,-10.69103 v 2.21194 h -10.96753 v -2.21194 c 0,-0.64515 -0.18433,-1.10597 -0.64515,-1.56679 -0.46082,-0.46082 -0.92164,-0.64515 -1.56679,-0.64515 h -33.54772 c -0.64515,0 -1.10597,0.18433 -1.56679,0.64515 -0.46082,0.46082 -0.64515,0.92164 -0.64515,1.56679 v 8.57126 c 0,0.64515 0.18433,1.10597 0.64515,1.56679 0.46082,0.46082 0.92164,0.64515 1.56679,0.64515 h 33.54772 c 3.68657,0 6.72798,1.29029 9.30857,3.87089 2.5806,2.58059 3.8709,5.71417 3.8709,9.30857 v 8.57126 c 0,3.68656 -1.2903,6.72798 -3.8709,9.30857 -2.58059,2.5806 -5.71417,3.87089 -9.30857,3.87089 h -33.54772 c -3.68657,0 -6.72798,-1.29029 -9.30858,-3.87089 -2.58059,-2.58059 -3.87089,-5.71417 -3.87089,-9.30857 v -2.21194 h 10.96753 v 2.21194 c 0,0.64515 0.18433,1.10597 0.64515,1.56679 0.46082,0.46082 0.92164,0.64515 1.56679,0.64515 h 33.54772 c 0.64515,0 1.10597,-0.18433 1.56679,-0.64515 0.46082,-0.46082 0.64515,-0.92164 0.64515,-1.56679 v -8.57126 c 0,-0.64515 -0.18433,-1.10597 -0.64515,-1.56679 -0.46082,-0.46082 -0.92164,-0.64515 -1.56679,-0.64515 h -33.54772 c -3.68657,0 -6.72798,-1.2903 -9.30858,-3.87089 -2.58059,-2.58059 -3.87089,-5.71417 -3.87089,-9.30857 v -8.57126 c 0,-3.68657 1.2903,-6.72798 3.87089,-9.30857 2.5806,-2.5806 5.71418,-3.8709 9.30858,-3.8709 h 33.54772 c 3.68657,0 6.72798,1.2903 9.30857,3.8709 2.5806,2.48843 3.8709,5.622 3.8709,9.30857 z m 23.22535,-13.27163 h 33.54772 c 3.68656,0 6.72798,1.2903 9.30858,3.87089 2.5806,2.5806 3.87089,5.71417 3.87089,9.30857 v 32.53392 c 0,3.68657 -1.29029,6.72798 -3.87089,9.30858 -2.5806,2.58059 -5.71417,3.87089 -9.30858,3.87089 h -33.54772 c -3.68657,0 -6.72798,-1.2903 -9.30858,-3.87089 -2.58059,-2.5806 -3.87089,-5.71418 -3.87089,-9.30858 v -32.53392 c 0,-3.68656 1.2903,-6.72797 3.87089,-9.30857 2.5806,-2.58059 5.71419,-3.87089 9.30858,-3.87089 z m 33.54772,10.96753 h -33.54772 c -0.64514,0 -1.10596,0.18432 -1.56679,0.64514 -0.46082,0.46082 -0.64514,0.92165 -0.64514,1.56679 v 32.53392 c 0,0.64515 0.18433,1.10597 0.64514,1.56679 0.46083,0.46082 0.92165,0.64515 1.56679,0.64515 h 33.54772 c 0.64515,0 1.10597,-0.18433 1.56679,-0.64515 0.46082,-0.46082 0.64515,-0.92164 0.64515,-1.56679 v -32.53392 c 0,-0.64514 -0.18433,-1.10597 -0.64515,-1.56679 -0.46082,-0.36865 -0.92164,-0.64514 -1.56679,-0.64514 z m 99.0764,-10.96753 c 3.68656,0 6.72798,1.2903 9.30857,3.87089 2.5806,2.5806 3.87089,5.71417 3.87089,9.30857 v 45.71339 h -10.87536 v -45.71339 c 0,-0.64514 -0.18433,-1.10597 -0.64515,-1.56679 -0.46082,-0.46082 -1.0138,-0.64514 -1.65895,-0.64514 h -23.22535 c -0.64515,0 -1.10597,0.18432 -1.56679,0.64514 -0.46082,0.46082 -0.64515,0.92165 -0.64515,1.56679 v 45.71339 h -10.96752 v -45.71339 c 0,-0.64514 -0.18433,-1.10597 -0.64515,-1.56679 -0.46082,-0.46082 -0.92164,-0.64514 -1.56679,-0.64514 h -23.31752 c -0.64515,0 -1.10597,0.18432 -1.56679,0.64514 -0.46082,0.46082 -0.64514,0.92165 -0.64514,1.56679 v 45.71339 h -10.96753 v -58.89285 z m 70.50552,0 c 3.68657,0 6.72798,1.2903 9.30858,3.87089 2.58059,2.5806 3.87089,5.71417 3.87089,9.30857 v 21.75073 H 720.6869 v 10.78319 c 0,0.64515 0.18433,1.10597 0.64515,1.56679 0.46082,0.46082 0.92164,0.64515 1.56679,0.64515 h 46.72719 v 10.96753 h -46.72719 c -3.68657,0 -6.72798,-1.2903 -9.30858,-3.87089 -2.58059,-2.5806 -3.87089,-5.71418 -3.87089,-9.30858 v -32.53392 c 0,-3.68656 1.2903,-6.72797 3.87089,-9.30857 2.5806,-2.58059 5.71418,-3.87089 9.30858,-3.87089 z m -35.75966,23.96266 h 37.9716 v -10.7832 c 0,-0.64514 -0.18434,-1.10597 -0.64515,-1.56679 -0.46082,-0.46082 -0.92164,-0.64514 -1.56679,-0.64514 h -33.54772 c -0.64515,0 -1.10597,0.18432 -1.56679,0.64514 -0.46082,0.46082 -0.64515,0.92165 -0.64515,1.56679 z"
     id="path5324" />
  <path
     id="path956"
     d="m 376.06123,565.49796 c -19.55038,13.05123 -41.86978,19.95195 -65.90976,17.96861 -7.87675,-0.73376 -11.29104,-1.86261 -14.08041,-4.65538 -11.8996,-16.30786 5.20238,-27.31074 21.72477,-41.83846 25.68393,-24.91866 41.20641,-52.27678 3.94974,-76.23081 -35.35889,-21.14885 -77.93602,71.91781 -94.23906,51.28458 -0.89806,-0.53726 -2.975,-2.90142 -4.61538,-5.25369 -11.79361,-27.91648 8.92652,-82.37558 28.82098,-95.35916 1.21985,-0.58871 3.4228,-2.25778 4.89544,-3.70903 22.75221,-19.50818 62.95604,-27.04248 92.39281,-15.51959 1.31445,0.54885 2.59605,0.79194 2.848,0.5402 0.25194,-0.25173 0.89124,-0.0249 1.42066,0.50406 1.43048,1.42927 5.68839,2.67496 7.38695,2.16112 0.97263,-0.29424 39.70313,-38.63336 111.92774,-110.79669 L 583.02419,174.24696 c -15.25084,-44.4729 -16.99669,-65.89009 8.08305,-101.776434 21.60499,-29.06884 64.98388,-44.015611 94.59196,-38.836421 7.36619,0.782956 10.44964,8.2808 10.63773,13.225195 0.62102,15.412761 -21.53566,29.183965 -25.65156,32.508411 -57.79363,40.841319 -28.86608,98.633739 25.60849,73.717949 35.27566,-14.1343 41.12395,-65.887456 68.35816,-45.4559 9.64402,9.27429 5.68793,22.29987 4.4382,36.68689 -2.96132,22.54791 -14.19903,39.7034 -22.65314,50.01452 -23.52071,27.14851 -62.53041,40.14037 -97.11954,31.14001 -6.27183,-0.72216 -12.74393,-4.66489 -17.48246,-5.19114 L 519.44096,332.57878 c -87.72253,87.64776 -112.25571,112.43745 -111.76229,112.93045 0.86644,0.8657 5.16911,13.63664 5.06472,15.03278 5.92632,26.85953 2.97698,54.59471 -12.99959,79.65463 -3.71827,5.62023 -18.83266,21.7677 -23.68257,25.30129 z"
     style="fill:#c8c8c8;fill-opacity:1;stroke-width:0.73696387" />
  <path
     id="path956-3"
     d="m 519.34638,316.7832 c 0,0 9.25777,10.83179 90.97425,92.47893 l 91.76587,91.68799 1.89716,-0.7089 c 1.04346,-0.38989 2.09412,-0.51212 2.33483,-0.27161 0.24071,0.2405 0.70339,0.17177 1.02816,-0.15274 0.9923,-0.99145 4.64279,-0.37676 7.50192,1.26319 1.55838,0.89386 3.8981,3.0262 5.50335,5.01555 1.53585,1.90335 5.85992,7.19338 9.60907,11.75562 8.37482,10.19118 12.94517,16.25113 13.94863,18.49494 1.95293,4.3668 -0.73033,9.51149 -8.40005,16.10574 -4.904,4.21642 -5.50269,4.53791 -8.16411,4.38465 -1.57962,-0.091 -3.08074,0.0431 -3.33582,0.298 -0.75674,0.75609 -6.7415,-3.76724 -28.04859,-21.19935 -6.08719,-4.98016 -8.13006,-6.97233 -8.97027,-8.74762 -1.15824,-2.44729 -1.44503,-4.54654 -0.72007,-5.27087 0.24332,-0.24312 0.50791,-1.88745 0.58796,-3.65409 l 0.14557,-3.21207 -91.13544,-91.05812 -91.13545,-91.05812 z"
     style="fill:#c8c8c8;fill-opacity:1;stroke-width:0.73696387" />
  <path
     id="path956-3-6"
     d="m 246.31401,136.40865 c -0.66206,-29.535 39.90466,-76.803734 71.91742,-76.416463 3.36901,1.045596 4.8773,2.56334 23.31303,23.459023 45.58116,52.70176 97.16159,108.11094 145.18043,163.83114 3.57744,4.16083 11.79967,13.52564 18.27163,20.81069 15.8841,17.87967 17.80674,21.52952 17.63039,33.46866 -0.0965,6.53375 -3.28052,15.22146 -3.28052,15.22146 l -14.61304,16.15112 c 0,0 -18.0497,4.12135 -26.66796,0.81173 -7.5147,-3.08299 -22.55934,-14.57666 -33.86137,-25.86911 -2.64277,-2.64052 -5.07169,-4.69075 -5.39762,-4.5561 -0.32592,0.13465 -8.39559,-6.49164 -17.93261,-14.72511 -48.57223,-43.85401 -125.62364,-107.2894 -173.61826,-150.54725 -0.94152,-1.63979 -0.94152,-1.63979 -0.94152,-1.63979 z"
     style="fill:#ff9d39;fill-opacity:1;stroke-width:0.73696387" />
  <g
     transform="matrix(0.95281275,0,0,0.95200427,501.85281,353.42117)"
     id="g4630"
     style="fill:#fc60a8;fill-opacity:1;stroke:none">
    <clipPath
       id="b">
      <path
         d="M -500,-350 H 500 V 109.38 H -500 Z"
         id="path4621" />
    </clipPath>
    <g
       clip-path="url(#b)"
       id="g4628"
       style="fill:#fc60a8;fill-opacity:1;fill-rule:nonzero;stroke:none">
      <path
         d="m 292.5,-59.9 -85.8082,-75.67661 c -6.11674,1.99673 -12.46174,3.09341 -22.68736,3.89937 L 246.4,-59.9 h -492.7 l 80.49273,-78.55485 -21.18285,-18.10504 L -292.4,-59.9 h -0.1 v 90.7 c 0,41 39.5,74.4 88,74.4 h 92.5 c 48.5,0 88,-33.4 88,-74.4 v -49.6 h 48 v 49.6 c 0,41 39.5,74.4 88,74.4 h 92.5 c 48.5,0 88,-33.4 88,-74.4 z"
         id="path4626"
         style="fill:#fc60a8;fill-opacity:1;stroke:none;stroke-width:3.77952766;stroke-miterlimit:1.40999997;stroke-dasharray:none;stroke-opacity:1" />
    </g>
  </g>
</svg>
